<?xml version="1.0" encoding="utf-8"?>
<!-- Generator: Adobe Illustrator 16.0.3, SVG Export Plug-In . SVG Version: 6.00 Build 0)  -->
<!DOCTYPE svg PUBLIC "-//W3C//DTD SVG 1.1//EN" "http://www.w3.org/Graphics/SVG/1.1/DTD/svg11.dtd">
<svg version="1.1" id="Capa_1" xmlns="http://www.w3.org/2000/svg" xmlns:xlink="http://www.w3.org/1999/xlink" x="0px" y="0px"
	 width="50px" height="60px" viewBox="0 0 50 60" enable-background="new 0 0 50 60" xml:space="preserve">
<path fill="#FFFFFF" d="M42.529,42.383c0,0.963-0.713,1.742-1.594,1.742H8.969c-0.88,0-1.594-0.779-1.594-1.742l0,0
	c0-0.961,0.713-1.74,1.594-1.74h31.967C41.816,40.643,42.529,41.422,42.529,42.383L42.529,42.383z"/>
<path fill="#FFFFFF" d="M42.529,30c0,0.963-0.713,1.742-1.594,1.742H8.969c-0.88,0-1.594-0.779-1.594-1.742l0,0
	c0-0.961,0.713-1.74,1.594-1.74h31.967C41.816,28.26,42.529,29.039,42.529,30L42.529,30z"/>
<path fill="#FFFFFF" d="M42.529,18.063c0,0.962-0.713,1.741-1.594,1.741H8.969c-0.88,0-1.594-0.779-1.594-1.741l0,0
	c0-0.962,0.713-1.741,1.594-1.741h31.967C41.816,16.322,42.529,17.102,42.529,18.063L42.529,18.063z"/>
</svg>
