<?xml version="1.0" encoding="utf-8"?>
<!-- Generator: Adobe Illustrator 16.0.3, SVG Export Plug-In . SVG Version: 6.00 Build 0)  -->
<!DOCTYPE svg PUBLIC "-//W3C//DTD SVG 1.1//EN" "http://www.w3.org/Graphics/SVG/1.1/DTD/svg11.dtd">
<svg version="1.1" id="Capa_10" xmlns="http://www.w3.org/2000/svg" xmlns:xlink="http://www.w3.org/1999/xlink" x="0px" y="0px"
	 width="157.92px" height="136.8px" viewBox="0 0 157.92 136.8" enable-background="new 0 0 157.92 136.8" xml:space="preserve">
<g id="Forma_1_4_">
	<g>
		<path fill-rule="evenodd" clip-rule="evenodd" fill="#FF6C00" d="M39.081,38.339C20.005,38.401,4.72,53.752,4.695,72.743
			c-0.026,19.301,15.578,34.455,34.27,34.508c19.119,0.055,34.449-15.484,34.508-34.34C73.531,54.147,58.441,38.402,39.081,38.339z
			 M39.042,101.153c-15.139-0.018-27.922-12.275-27.979-28.07c0.074-15.813,12.895-28.073,28.075-28.04
			c15.435,0.033,28.004,12.679,27.949,28.155C67.034,88.61,54.456,101.17,39.042,101.153z M153.594,52.261
			c-0.295-2.836-0.789-5.637-1.557-8.381c-3.84-13.733-11.76-24.466-23.756-32.123c-7.977-5.09-16.75-7.772-26.184-8.3
			c-2.797-0.157-5.59-0.07-8.375,0.21c-2.887,0.29-5.734,0.804-8.537,1.561c-0.672,0.181-0.676,0.178-0.5,0.84
			c0.277,1.052,0.559,2.103,0.84,3.157c13.566-3.479,26.545-2.099,38.697,4.924c12.133,7.012,20.125,17.408,23.691,30.992
			c3.566,13.583,1.578,26.509-5.367,38.718c0.088,0.057,0.18,0.123,0.277,0.18c1.027,0.604,2.064,1.191,3.082,1.814
			c0.311,0.189,0.436,0.119,0.604-0.172c4.814-8.328,7.25-17.311,7.404-26.924C153.95,56.588,153.821,54.422,153.594,52.261z
			 M133.928,48.496c-2.102-7.318-6.088-13.41-12.012-18.174c-6.963-5.6-14.943-8.215-23.871-7.931
			c-2.529,0.081-5.014,0.45-7.467,1.059c-0.395,0.098-0.787,0.215-1.207,0.331c0.191,0.734,0.383,1.418,0.541,2.109
			c0.072,0.313,0.195,0.37,0.5,0.283c2.211-0.634,4.469-1.007,6.758-1.158c2.746-0.181,5.477-0.028,8.178,0.489
			c7.463,1.428,13.789,4.94,18.787,10.667c6.543,7.495,9.207,16.257,8.086,26.158c-0.395,3.486-1.377,6.811-2.879,9.979
			c-0.467,0.982-0.99,1.939-1.518,2.969c0.629,0.367,1.26,0.74,1.893,1.105c0.563,0.324,0.471,0.387,0.805-0.201
			c3.455-6.084,5.027-12.621,4.709-19.617C135.106,53.821,134.686,51.13,133.928,48.496z M108.227,42.271
			c-4.037-2.816-8.568-3.894-13.449-3.613c-2.25,0.13-4.436,0.579-6.508,1.46c-6.637,2.821-10.864,7.71-12.501,14.787
			c-0.064,0.287-0.018,0.467,0.264,0.613c0.6,0.314,1.178,0.664,1.766,0.998c0.098,0.055,0.199,0.102,0.342,0.172
			c0.35-1.734,0.865-3.35,1.614-4.884c2.025-4.156,5.096-7.242,9.383-9.025c3.68-1.532,7.5-1.807,11.357-0.877
			c6.178,1.49,10.404,5.221,12.422,11.312c0.801,2.418,1.018,4.918,0.656,7.449c-0.328,2.291-1.172,4.406-2.271,6.426
			c-1.596,2.928-3.654,5.506-6,7.855c-2.658,2.664-5.344,5.303-8.018,7.953c-4.336,4.299-8.67,8.598-13.006,12.896
			c-2.982,2.959-5.966,5.916-8.954,8.869c-0.184,0.184-0.281,0.342-0.225,0.627c0.107,0.539,0.16,1.088,0.23,1.635
			c0.068,0.506,0.066,0.506,0.592,0.506h40.001c0.092,0,0.201,0.031,0.271-0.008c0.096-0.055,0.229-0.16,0.23-0.246
			c0.02-0.758,0.008-1.518,0.014-2.275c0-0.189-0.076-0.273-0.266-0.268c-0.125,0.006-0.252,0-0.377,0H80.231
			c-0.139,0-0.275,0.006-0.412-0.004c-0.082-0.008-0.161-0.041-0.3-0.08c0.141-0.154,0.233-0.268,0.337-0.369
			c3.096-3.07,6.193-6.141,9.291-9.211c3.979-3.941,7.971-7.871,11.934-11.828c2.793-2.789,5.598-5.57,8.305-8.441
			c1.965-2.084,3.574-4.455,4.869-7.025c1.23-2.447,2.043-5.02,2.229-7.758c0.121-1.768,0.023-3.533-0.32-5.281
			C115.149,49.462,112.555,45.289,108.227,42.271z"/>
	</g>
</g>
<g>
	<path fill="#FFFFFF" d="M41.097,127.925c-1.499,1.5-3.542,2.412-5.867,2.412c-4.606,0-8.322-3.716-8.322-8.322
		s3.715-8.322,8.322-8.322c2.325,0,4.389,0.913,5.888,2.412l-0.5,0.5c-1.391-1.391-3.281-2.217-5.389-2.217
		c-4.194,0-7.626,3.391-7.626,7.627c0,4.193,3.433,7.627,7.626,7.627c2.086,0,3.976-0.848,5.367-2.217L41.097,127.925z"/>
	<path fill="#FFFFFF" d="M54.116,130.164h-0.695v-2.716c-0.956,1.738-2.781,2.89-4.889,2.89c-3.129,0-5.627-2.499-5.627-5.628
		c0-3.085,2.499-5.584,5.627-5.584c2.108,0,3.933,1.151,4.889,2.89v-2.716h0.695V130.164z M48.532,129.621
		c2.716,0,4.889-2.173,4.889-4.911c0-2.716-2.173-4.889-4.889-4.889c-2.737,0-4.91,2.173-4.91,4.889
		C43.622,127.448,45.794,129.621,48.532,129.621z"/>
	<path fill="#FFFFFF" d="M61.267,119.908c-0.195-0.021-0.651-0.043-0.847-0.043c-1.912,0-3.499,1.412-3.499,3.324v6.975h-0.695
		v-10.864l0.695,0.087v1.63c0.761-1.13,2.021-1.847,3.499-1.847c0.239,0,0.695-0.022,0.934,0.043L61.267,119.908z"/>
	<path fill="#FFFFFF" d="M62.855,132.597c0.847,1.304,2.325,2.107,3.976,2.107c2.607,0,4.78-2.129,4.78-4.758v-2.499
		c-0.956,1.738-2.781,2.89-4.889,2.89c-3.129,0-5.627-2.499-5.627-5.584c0-3.129,2.499-5.628,5.627-5.628
		c2.108,0,3.933,1.151,4.889,2.89v-2.716h0.695c0,10.517,0.022,10.973-0.022,10.973c-0.174,2.868-2.563,5.149-5.454,5.149
		c-1.89,0-3.542-0.934-4.52-2.39L62.855,132.597z M66.722,129.642c2.716,0,4.889-2.173,4.889-4.889c0-2.738-2.173-4.911-4.889-4.911
		c-2.737,0-4.91,2.173-4.91,4.911C61.812,127.469,63.985,129.642,66.722,129.642z"/>
	<path fill="#FFFFFF" d="M85.107,130.164h-0.695v-2.716c-0.955,1.738-2.781,2.89-4.889,2.89c-3.129,0-5.627-2.499-5.627-5.628
		c0-3.085,2.499-5.584,5.627-5.584c2.107,0,3.934,1.151,4.889,2.89v-2.716h0.695V130.164z M79.523,129.621
		c2.717,0,4.889-2.173,4.889-4.911c0-2.716-2.172-4.889-4.889-4.889c-2.737,0-4.91,2.173-4.91,4.889
		C74.613,127.448,76.786,129.621,79.523,129.621z"/>
	<path fill="#FFFFFF" d="M87.217,119.299l0.695,0.021v1.695c0.761-1.13,2.021-1.891,3.499-1.891c2.303,0,4.193,1.847,4.193,4.15
		v6.888H94.91v-6.932c0-1.912-1.586-3.411-3.498-3.411s-3.499,1.478-3.499,3.368v6.975h-0.695V119.299z"/>
	<path fill="#FFFFFF" d="M108.601,130.164h-0.695v-2.716c-0.957,1.738-2.781,2.89-4.89,2.89c-3.129,0-5.628-2.499-5.628-5.628
		c0-3.085,2.499-5.584,5.628-5.584c2.108,0,3.933,1.151,4.89,2.89v-7.062h0.695V130.164z M103.016,129.621
		c2.716,0,4.89-2.173,4.89-4.911c0-2.716-2.174-4.889-4.89-4.889c-2.737,0-4.91,2.173-4.91,4.889
		C98.106,127.448,100.279,129.621,103.016,129.621z"/>
	<path fill="#FFFFFF" d="M115.904,119.125c3.086,0,5.584,2.499,5.584,5.584c0,3.129-2.498,5.628-5.584,5.628
		c-3.129,0-5.627-2.499-5.627-5.628C110.277,121.625,112.775,119.125,115.904,119.125z M115.904,129.621
		c2.717,0,4.889-2.173,4.889-4.911c0-2.716-2.172-4.889-4.889-4.889c-2.737,0-4.91,2.173-4.91,4.889
		C110.994,127.448,113.167,129.621,115.904,129.621z"/>
	<path fill="#FFFFFF" d="M122.23,129.381c0.238,0,0.435,0.195,0.435,0.435s-0.196,0.435-0.435,0.435
		c-0.239,0-0.435-0.195-0.435-0.435S121.991,129.381,122.23,129.381z"/>
	<path fill="#FFFFFF" d="M124.75,129.381c0.239,0,0.435,0.195,0.435,0.435s-0.195,0.435-0.435,0.435s-0.435-0.195-0.435-0.435
		S124.511,129.381,124.75,129.381z"/>
	<path fill="#FFFFFF" d="M127.272,129.381c0.239,0,0.435,0.195,0.435,0.435s-0.195,0.435-0.435,0.435s-0.435-0.195-0.435-0.435
		S127.033,129.381,127.272,129.381z"/>
</g>
</svg>
