<?xml version="1.0" encoding="utf-8"?>
<!-- Generator: Adobe Illustrator 16.0.3, SVG Export Plug-In . SVG Version: 6.00 Build 0)  -->
<!DOCTYPE svg PUBLIC "-//W3C//DTD SVG 1.1//EN" "http://www.w3.org/Graphics/SVG/1.1/DTD/svg11.dtd">
<svg version="1.1" id="Capa_1" xmlns="http://www.w3.org/2000/svg" xmlns:xlink="http://www.w3.org/1999/xlink" x="0px" y="0px"
	 width="85.225px" height="59.562px" viewBox="0 0 85.225 59.562" enable-background="new 0 0 85.225 59.562" xml:space="preserve">
<g id="Forma_1_4_">
	<g>
		<path fill-rule="evenodd" clip-rule="evenodd" fill="#FFFFFF" d="M22.617,21.255c-9.526,0.031-17.159,7.698-17.172,17.181
			c-0.013,9.639,7.78,17.206,17.114,17.233c9.548,0.027,17.204-7.733,17.233-17.15C39.821,29.149,32.285,21.287,22.617,21.255z
			 M22.598,52.624c-7.561-0.009-13.944-6.13-13.973-14.019c0.037-7.896,6.439-14.019,14.021-14.002
			c7.708,0.017,13.985,6.331,13.958,14.061C36.576,46.359,30.295,52.633,22.598,52.624z M79.804,28.208
			c-0.146-1.417-0.394-2.815-0.777-4.186c-1.917-6.858-5.872-12.218-11.863-16.042c-3.983-2.542-8.365-3.881-13.076-4.145
			c-1.396-0.078-2.792-0.035-4.182,0.105c-1.442,0.145-2.864,0.402-4.264,0.779c-0.335,0.091-0.337,0.089-0.25,0.419
			c0.139,0.525,0.279,1.05,0.419,1.577c6.775-1.738,13.256-1.048,19.326,2.459c6.059,3.502,10.05,8.693,11.831,15.478
			c1.781,6.782,0.787,13.238-2.681,19.334c0.044,0.029,0.09,0.062,0.139,0.091c0.513,0.302,1.03,0.595,1.539,0.906
			c0.155,0.094,0.218,0.058,0.301-0.087c2.405-4.158,3.621-8.645,3.698-13.445C79.981,30.369,79.917,29.287,79.804,28.208z
			 M69.982,26.327c-1.049-3.655-3.04-6.697-5.998-9.076c-3.478-2.797-7.462-4.103-11.921-3.961
			c-1.263,0.041-2.504,0.225-3.729,0.529c-0.197,0.049-0.394,0.107-0.603,0.165c0.095,0.367,0.192,0.708,0.27,1.053
			c0.037,0.156,0.098,0.185,0.25,0.142c1.104-0.317,2.232-0.503,3.375-0.578c1.372-0.09,2.735-0.014,4.084,0.244
			c3.727,0.713,6.887,2.467,9.382,5.327c3.268,3.743,4.599,8.119,4.039,13.062c-0.197,1.742-0.688,3.401-1.438,4.984
			c-0.232,0.489-0.494,0.969-0.757,1.483c0.313,0.182,0.628,0.367,0.944,0.552c0.281,0.162,0.235,0.192,0.402-0.101
			c1.726-3.038,2.51-6.304,2.352-9.797C70.571,28.987,70.361,27.643,69.982,26.327z M57.147,23.219
			c-2.016-1.406-4.278-1.944-6.716-1.804c-1.124,0.064-2.215,0.289-3.25,0.729c-3.314,1.409-5.425,3.85-6.243,7.385
			c-0.033,0.143-0.009,0.233,0.131,0.306c0.3,0.157,0.588,0.331,0.882,0.498c0.049,0.027,0.1,0.051,0.17,0.086
			c0.175-0.866,0.433-1.672,0.807-2.438c1.011-2.076,2.544-3.617,4.686-4.507c1.838-0.765,3.746-0.902,5.671-0.438
			c3.085,0.744,5.196,2.607,6.204,5.649c0.399,1.208,0.508,2.456,0.327,3.72c-0.164,1.144-0.585,2.199-1.134,3.208
			c-0.797,1.463-1.824,2.751-2.996,3.924c-1.328,1.33-2.668,2.647-4.004,3.972c-2.166,2.147-4.33,4.293-6.495,6.44
			c-1.489,1.477-2.979,2.954-4.472,4.429c-0.091,0.092-0.141,0.172-0.112,0.313c0.054,0.27,0.08,0.544,0.115,0.816
			c0.034,0.252,0.033,0.252,0.296,0.252h19.976c0.046,0,0.101,0.017,0.136-0.003c0.048-0.027,0.114-0.08,0.114-0.123
			c0.01-0.379,0.005-0.759,0.007-1.137c0-0.094-0.038-0.137-0.133-0.133c-0.062,0.003-0.125,0-0.188,0h-17.76
			c-0.069,0-0.138,0.003-0.206-0.002c-0.041-0.005-0.081-0.021-0.15-0.041c0.07-0.076,0.117-0.133,0.168-0.184
			c1.545-1.534,3.092-3.066,4.64-4.6c1.986-1.969,3.98-3.932,5.959-5.908c1.395-1.393,2.795-2.781,4.147-4.214
			c0.981-1.042,1.785-2.226,2.432-3.509c0.614-1.223,1.021-2.507,1.112-3.876c0.061-0.882,0.012-1.763-0.159-2.636
			C60.604,26.81,59.309,24.726,57.147,23.219z"/>
	</g>
</g>
</svg>
