<?xml version="1.0" encoding="utf-8"?>
<!-- Generator: Adobe Illustrator 16.0.3, SVG Export Plug-In . SVG Version: 6.00 Build 0)  -->
<!DOCTYPE svg PUBLIC "-//W3C//DTD SVG 1.1//EN" "http://www.w3.org/Graphics/SVG/1.1/DTD/svg11.dtd">
<svg version="1.1" id="Capa_1" xmlns="http://www.w3.org/2000/svg" xmlns:xlink="http://www.w3.org/1999/xlink" x="0px" y="0px"
	 width="50px" height="60px" viewBox="0 0 50 60" enable-background="new 0 0 50 60" xml:space="preserve">
<path fill-rule="evenodd" clip-rule="evenodd" fill="#FDFDFD" d="M27.438,19.102c0.046-0.06,0.091-0.12,0.136-0.182
	c0.239-0.333,0.594-0.472,0.953-0.342c0.366,0.131,0.562,0.397,0.562,0.799c-0.002,1.636-0.001,3.271-0.001,4.908
	c0,0.142,0,0.285,0,0.532c0.162-0.148,0.27-0.242,0.37-0.342c3.499-3.498,6.995-6.997,10.502-10.487
	c0.189-0.19,0.454-0.35,0.714-0.416c0.326-0.085,0.61,0.092,0.779,0.391c0.166,0.293,0.159,0.6-0.04,0.88
	c-0.097,0.137-0.219,0.257-0.337,0.376c-3.47,3.472-6.939,6.942-10.414,10.408c-0.107,0.105-0.268,0.156-0.402,0.231
	c0.041,0.057,0.083,0.112,0.125,0.169c0.123,0,0.247,0,0.37,0c1.571,0,3.144,0,4.713,0c0.647,0,0.945,0.156,1.072,0.563
	c0.13,0.416-0.017,0.719-0.527,1.087c-2.65,0-5.301,0-7.95,0c-0.209-0.207-0.416-0.415-0.624-0.624
	C27.438,24.403,27.438,21.753,27.438,19.102z"/>
<path fill-rule="evenodd" clip-rule="evenodd" fill="#FDFDFD" d="M22.205,40.951C22.166,41,22.125,41.048,22.09,41.1
	c-0.247,0.359-0.598,0.497-0.975,0.38c-0.35-0.108-0.559-0.411-0.56-0.841c-0.004-1.623-0.001-3.246-0.001-4.869
	c0-0.143,0-0.285,0-0.533c-0.162,0.148-0.27,0.241-0.37,0.342c-3.453,3.451-6.905,6.904-10.358,10.355
	c-0.12,0.119-0.238,0.242-0.374,0.342c-0.327,0.24-0.789,0.199-1.069-0.081c-0.271-0.271-0.321-0.709-0.103-1.036
	c0.085-0.128,0.201-0.238,0.31-0.348c3.462-3.462,6.922-6.924,10.389-10.381c0.105-0.107,0.265-0.16,0.397-0.239
	c-0.038-0.054-0.077-0.109-0.116-0.165c-0.122,0-0.246,0-0.369,0c-1.571,0-3.144,0.001-4.713,0c-0.647,0-0.951-0.157-1.077-0.558
	c-0.13-0.417,0.016-0.72,0.528-1.091c2.65,0,5.301,0,7.951,0c0.208,0.207,0.415,0.415,0.624,0.623
	C22.205,35.65,22.205,38.301,22.205,40.951z"/>
<path fill="#FDFDFD" d="M43.541,47.631c-12.394,0-24.784,0-37.178,0c0.204,0.205,0.409,0.408,0.613,0.613
	c0-12.163,0-24.326,0-36.488c-0.204,0.205-0.409,0.409-0.613,0.614c12.394,0,24.784,0,37.178,0
	c-0.205-0.205-0.408-0.409-0.613-0.614c0,12.163,0,24.325,0,36.488c0,0.791,1.227,0.791,1.227,0c0-12.163,0-24.326,0-36.488
	c0-0.334-0.279-0.613-0.613-0.613c-12.394,0-24.784,0-37.178,0c-0.334,0-0.613,0.279-0.613,0.613c0,12.163,0,24.325,0,36.488
	c0,0.334,0.279,0.613,0.613,0.613c12.394,0,24.784,0,37.178,0C44.331,48.857,44.331,47.631,43.541,47.631z"/>
</svg>
